<svg width="128" height="52" viewBox="0 0 128 52" fill="none" xmlns="http://www.w3.org/2000/svg">
<g clip-path="url(#clip0_4_2267)">
<path d="M90.5 52.1056V44.0474H92.1075V50.7367H96.1046V52.1056H90.5Z" fill="#462512"/>
<path d="M85.3717 52.106H83.6226L82.9275 50.2604H79.7452L79.0881 52.106H77.383L80.4838 43.9812H82.1835L85.3717 52.106ZM82.4115 48.8915L81.3146 45.8766L80.2392 48.8915H82.4115Z" fill="#462512"/>
<path d="M69.7841 52.106V45.3556H67.4219V43.9812H73.7484V45.3556H71.3916V52.106H69.7841Z" fill="#462512"/>
<path d="M55.7461 52.106V43.9812H57.3102L60.5686 49.4069V43.9812H62.0624V52.106H60.4495L57.2399 46.8077V52.106H55.7461Z" fill="#462512"/>
<path d="M44.0781 52.106V43.9812H49.9814V45.3556H45.6856V47.1568H49.6827V48.5257H45.6856V50.737H50.1334V52.106H44.0781Z" fill="#462512"/>
<path d="M31.8125 43.9812H34.7505C35.4131 43.9812 35.9182 44.0329 36.2657 44.1364C36.7328 44.2768 37.1329 44.5262 37.466 44.8846C37.7991 45.2429 38.0525 45.6826 38.2263 46.2036C38.4001 46.7208 38.487 47.3601 38.487 48.1212C38.487 48.7899 38.4055 49.3663 38.2425 49.8503C38.0434 50.4415 37.7592 50.92 37.3899 51.2857C37.1112 51.5629 36.7346 51.779 36.2603 51.9341C35.9055 52.0487 35.4312 52.106 34.8374 52.106H31.8125V43.9812ZM33.42 45.3556V50.737H34.6202C35.0691 50.737 35.3932 50.7112 35.5923 50.6595C35.853 50.593 36.0684 50.4803 36.2386 50.3214C36.4124 50.1625 36.5536 49.902 36.6622 49.5399C36.7708 49.1742 36.8251 48.6772 36.8251 48.0491C36.8251 47.421 36.7708 46.9388 36.6622 46.6026C36.5536 46.2664 36.4015 46.0041 36.206 45.8156C36.0105 45.6272 35.7625 45.4997 35.462 45.4332C35.2375 45.3815 34.7976 45.3556 34.1423 45.3556H33.42Z" fill="#462512"/>
<path d="M3.58993 11.0017C5.16495 9.80775 7.27219 9.37779 9.28557 9.35376C11.2242 9.35376 13.2376 9.67682 14.8873 10.6503C15.877 11.2461 16.7416 12.1542 16.8813 13.2608C16.9993 14.1491 16.8669 15.1989 16.0505 15.7992C15.2027 16.3754 14.0877 16.4671 13.0594 16.4737C13.0449 15.2666 12.9437 13.9963 12.2863 12.9181C11.8528 12.2 11.0532 11.6631 10.1526 11.5539C8.92191 11.3946 7.57809 11.6041 6.58102 12.3091C5.47079 13.1472 4.9169 14.4219 4.57492 15.6595C4.02824 17.7112 3.96081 19.8371 3.97766 21.939C4.01379 23.6066 4.18238 25.296 4.77963 26.885C5.18662 27.9501 5.83928 28.9891 6.88209 29.6395C8.21626 30.4907 9.93581 30.6523 11.5181 30.4864C13.5001 30.2747 15.3231 29.1332 16.2383 27.5267C16.9897 28.1902 17.1245 29.2619 16.7802 30.1284C16.4261 31.0561 15.6097 31.772 14.6946 32.2631C13.2665 33.0183 11.5975 33.3174 9.95748 33.3435C8.16327 33.385 6.32818 33.075 4.75314 32.274C3.12754 31.4381 1.91616 30.0499 1.17682 28.5111C0.0738154 26.2607 -0.203137 23.7638 -0.191096 21.3257C-0.174238 19.2151 0.00879163 17.0739 0.748139 15.0593C1.29964 13.5227 2.19553 12.0406 3.59475 11.006L3.58993 11.0017Z" fill="#E9811F"/>
<path d="M21.8096 2.36035C21.7927 1.75139 21.7807 1.14243 21.8144 0.535645C24.5238 0.561836 27.2331 0.526913 29.9448 0.555288C29.9328 9.6985 29.9448 18.8417 29.94 27.9871C29.9352 28.8405 29.9328 29.766 30.4747 30.5059C30.8624 31.0668 31.5753 31.3724 32.2809 31.4554C32.8517 31.5318 33.4297 31.5449 34.0052 31.523C34.0438 32.1298 34.0149 32.7388 34.0197 33.3455C29.9617 33.3434 25.9013 33.3543 21.8433 33.339L21.8024 33.3041C21.7831 32.7148 21.8024 32.1211 21.7976 31.5296C22.8115 31.5186 23.9361 31.5798 24.8031 31.0166C25.6485 30.4426 25.8845 29.4211 25.8796 28.5153C25.8796 20.7428 25.8796 12.9703 25.8796 5.20001C25.8893 4.3444 25.634 3.39058 24.832 2.86019C23.9578 2.29924 22.8259 2.36254 21.8072 2.36035H21.8096Z" fill="#E9811F"/>
<path d="M46.0581 9.3873C47.874 9.27164 49.7548 9.43968 51.4238 10.1338C52.8182 10.6991 53.9984 11.6507 54.8411 12.801C55.8044 14.1019 56.3703 15.6101 56.7028 17.138C57.1099 19.0609 57.1625 21.0319 57.0493 22.9832C56.9243 24.8559 56.5848 26.7482 55.754 28.4791C55.1184 29.8106 54.1234 31.0176 52.8061 31.8557C51.4238 32.7484 49.7404 33.1959 48.0594 33.3072C46.2218 33.436 44.3217 33.2548 42.6383 32.5433C41.1572 31.9343 39.9241 30.8844 39.074 29.6359C38.2022 28.3635 37.6796 26.9185 37.369 25.4561C37.0149 23.7515 36.9403 22.0119 36.9981 20.281C37.0751 18.4716 37.3232 16.649 37.9879 14.9313C38.5515 13.4864 39.457 12.1135 40.7911 11.1465C42.265 10.0399 44.17 9.50515 46.0605 9.3873H46.0581ZM46.2652 11.6638C45.2561 11.7533 44.2663 12.12 43.5318 12.7639C42.4433 13.7024 41.9303 15.0404 41.6148 16.3413C41.1283 18.5262 41.1018 20.7721 41.1885 22.9897C41.2969 24.7599 41.4871 26.5736 42.2747 28.2172C42.7949 29.3216 43.7076 30.3344 44.9719 30.7753C46.1713 31.1878 47.5247 31.2075 48.7578 30.8975C50.0631 30.5679 51.0842 29.6229 51.6526 28.5315C52.5653 26.8116 52.758 24.8733 52.8736 22.9919C52.9627 20.7525 52.9314 18.4869 52.4329 16.2845C52.0957 14.9095 51.5177 13.4842 50.2798 12.5653C49.172 11.7358 47.6596 11.5351 46.2676 11.6638H46.2652Z" fill="#E9811F"/>
<path d="M92.2508 10.144C93.8041 9.45644 95.5769 9.26869 97.2889 9.38659C99.1507 9.50882 101.007 10.1549 102.342 11.3597C103.782 12.6388 104.579 14.3915 104.981 16.155C105.407 17.9579 105.347 19.811 105.337 21.6445C100.559 21.6401 95.7839 21.6576 91.008 21.6357C90.9742 22.6223 91.0853 23.6111 91.2274 24.5889C91.48 26.0753 91.9258 27.5944 92.9518 28.8102C93.6234 29.6178 94.6012 30.2049 95.6873 30.4428C97.6912 30.8859 99.9043 30.5432 101.605 29.4759C102.387 28.9914 103.088 28.3758 103.558 27.625C103.931 27.7625 104.141 28.1139 104.283 28.4369C104.603 29.3078 104.189 30.2442 103.599 30.9382C102.558 32.1256 100.955 32.7761 99.3626 33.1231C97.1178 33.5269 94.6951 33.4374 92.6 32.5469C90.9914 31.8812 89.6762 30.7134 88.7923 29.3384C87.4245 27.2147 86.9214 24.7264 86.8318 22.2949C86.7841 20.5422 86.878 18.7764 87.2389 17.0499C87.5307 15.6858 87.9979 14.3369 88.7805 13.1342C89.599 11.8748 90.7892 10.79 92.2508 10.1505V10.144ZM93.5129 12.5951C92.6772 13.2805 92.1763 14.2277 91.8292 15.1838C91.3551 16.5195 91.1571 17.923 91.0708 19.3199C94.3775 19.3199 97.6837 19.3352 100.988 19.3112C100.969 17.8685 100.87 16.4126 100.444 15.0157C100.133 14.0226 99.6345 13.0185 98.7125 12.3681C97.9321 11.7875 96.877 11.6195 95.8922 11.6893C95.0179 11.7417 94.156 12.0538 93.5102 12.5951H93.5129Z" fill="#E9811F"/>
<path d="M59.6482 10.187C63.2366 10.1891 66.8249 10.187 70.4138 10.187C70.4229 10.7894 70.4041 11.3896 70.4256 11.9921C69.6307 12.0182 68.7639 11.9746 68.0752 12.4024C67.4514 12.7734 67.261 13.5003 67.2829 14.1376C67.2974 14.9889 67.6777 15.7855 67.9448 16.5909C68.7231 18.7518 69.4933 20.9126 70.2716 23.0735C70.7774 24.4529 71.2349 25.8455 71.6463 27.2489C71.9451 28.2704 72.2583 29.2941 72.4439 30.3396C72.4724 30.3309 72.5351 30.3177 72.5641 30.309C73.2265 28.1569 74.1201 26.0703 74.8951 23.9531C75.8392 21.3907 76.781 18.826 77.725 16.2657C78.0501 15.4472 78.3102 14.5742 78.1949 13.6989C78.1295 13.1991 77.8699 12.6905 77.3834 12.4198C76.692 12.016 75.844 12.0226 75.0566 11.9877C75.0855 11.3874 75.0593 10.7872 75.0711 10.187C78.1515 10.1935 81.2291 10.187 84.3068 10.1892C84.2972 10.796 84.324 11.4049 84.2924 12.0117C83.6208 12.0052 82.879 11.9724 82.2987 12.3304C81.7398 12.7014 81.4265 13.2842 81.1498 13.8429C80.5716 15.0609 80.15 16.3356 79.6613 17.584C78.4861 20.6943 77.3061 23.8047 76.1309 26.915C75.3071 29.0584 74.5267 31.2148 73.6792 33.3495C72.3785 33.332 71.0783 33.3429 69.7755 33.3451C67.4176 26.9477 65.1155 20.5307 62.7721 14.1289C62.5071 13.4894 62.1987 12.8084 61.5631 12.3981C61.009 12.0379 60.2962 12.0139 59.6413 12.003C59.6316 11.3984 59.6268 10.7916 59.6461 10.187H59.6482Z" fill="#E9811F"/>
<path d="M119.197 7.67993C120.182 7.68212 121.168 7.68212 122.152 7.67993C124.103 9.82988 125.734 12.2396 126.812 14.8522C127.617 16.8647 127.966 19.0124 127.978 21.1492C128.002 23.0263 127.737 24.9056 127.152 26.7085C126.184 29.7533 124.337 32.51 122.145 34.9568C121.163 34.9502 120.177 34.9502 119.195 34.9568C121.252 32.4358 122.617 29.4848 123.311 26.4182C124.24 22.354 124.045 18.076 122.716 14.1036C121.955 11.803 120.767 9.61597 119.195 7.67993H119.197Z" fill="#462512"/>
<path d="M111.413 12.9727C112.954 12.9727 114.495 12.9727 116.037 12.9727C116.037 14.3805 116.037 15.7861 116.037 17.194C114.493 17.194 112.952 17.194 111.41 17.194C111.41 15.7883 111.41 14.3805 111.41 12.9748L111.413 12.9727Z" fill="#462512"/>
<path d="M111.361 25.0915C112.903 25.0915 114.444 25.0981 115.985 25.0894C115.985 26.4972 115.985 27.905 115.985 29.3128C114.444 29.3128 112.903 29.3128 111.361 29.3128C111.359 27.905 111.359 26.4994 111.361 25.0915Z" fill="#462512"/>
</g>
<defs>
<clipPath id="clip0_4_2267">
<rect width="128" height="52" fill="white"/>
</clipPath>
</defs>
</svg>
